<svg version="1.2" xmlns="http://www.w3.org/2000/svg" viewBox="0 0 300 150" width="300" height="150">
	<title>logo</title>
	<defs>
		<linearGradient id="g1" x2="1" gradientUnits="userSpaceOnUse" gradientTransform="matrix(0,-58,114,0,148,124)">
			<stop offset="0" stop-color="#33a6ef"/>
			<stop offset="1" stop-color="#f69974"/>
		</linearGradient>
	</defs>
	<style>
		.s0 { fill: #000000 } 
		.s1 { fill: url(#g1);paint-order:stroke fill markers;stroke: #000000;stroke-width: 6;stroke-linejoin: round; } 
	</style>
	<path id="Calque 1" fill-rule="evenodd" class="s0" d="m177.6 2.5l-25.8 10-0.2 0.3-27.1 43.4 27.7-10.7 0.2-0.4 27-43.2q-0.9 0.2-1.8 0.6zm30.4 21.3l-5.5-14.4c-1.4-3.4-4.2-5.9-7.7-7.4l-22.2 35.5zm-76.6-3.3l-27.7 10.7-0.3 0.4-27 43.3 27.6-10.7 0.2-0.4c0 0 27.1-43.3 27.2-43.3zm-69.2 26.8c-10.6 4.1-16.7 13.9-13.6 21.8l5.6 14.4 1.8-0.7 0.2-0.3 27.1-43.4zm148.5-16.3l-153.8 59.7 19.6 50.4c3 7.9 14.2 11 24.8 6.9l115.3-44.8c10.6-4.1 16.8-13.9 13.7-21.8z"/>
	<path id="Portfolio" class="s1" aria-label="Portfolio"  d="m96.8 102.3q4-1.7 6.8-1 2.7 0.6 4 3.6 0.7 1.6 0.6 3.1-0.1 1.3-0.9 2.6-0.8 1.1-2.3 2.1-1.4 1-3.4 1.8l-2.2 0.9 3 7.1-2.7 1.1-7.8-18.8q1-0.7 2.4-1.4 1.3-0.6 2.5-1.1zm1.2 2.2q-1.7 0.7-2.6 1.2l3.1 7.4 2-0.8q1.4-0.6 2.4-1.2 1-0.6 1.6-1.4 0.6-0.7 0.7-1.6 0.1-0.9-0.4-2.1-0.5-1.1-1.2-1.6-0.7-0.6-1.6-0.7-0.9-0.1-1.9 0.1-1.1 0.3-2.1 0.7zm27.2 0.1q0.8 1.7 0.8 3.3 0.1 1.5-0.4 2.9-0.5 1.3-1.5 2.4-1 1-2.4 1.6-1.5 0.6-2.9 0.6-1.5 0-2.8-0.6-1.3-0.6-2.4-1.8-1-1.2-1.7-2.9-0.7-1.6-0.8-3.2-0.1-1.6 0.4-3 0.5-1.3 1.5-2.4 1-1 2.5-1.6 1.4-0.6 2.9-0.6 1.4 0 2.7 0.6 1.3 0.7 2.4 1.8 1.1 1.2 1.7 2.9zm-2.6 1.1q-1-2.4-2.7-3.4-1.6-0.9-3.5-0.2-1.9 0.8-2.4 2.7-0.5 1.8 0.5 4.2 1 2.4 2.7 3.4 1.7 1 3.5 0.2 1.9-0.8 2.4-2.6 0.5-1.9-0.5-4.3zm8.4-12.2q0.3-0.2 0.8-0.3 0.4-0.1 0.9-0.2 0.4-0.1 0.8-0.2 0.3-0.1 0.5-0.1l0.5 2.4q-0.3 0-1.1 0.2-0.8 0.1-1.8 0.6-0.8 0.3-1.4 0.7-0.6 0.4-0.8 0.6l5 12-2.6 1-5.7-13.6q0.8-0.7 2-1.6 1.2-0.8 2.9-1.5zm6-7.3l1.8 4.4 5.4-2.3 0.9 2.2-5.4 2.2 2.8 6.6q0.4 1.1 0.9 1.7 0.4 0.6 0.9 0.9 0.5 0.2 1.1 0.2 0.5 0 1.2-0.3 1.1-0.5 1.7-1 0.6-0.6 0.8-0.8l1.4 1.9q-0.3 0.3-1.1 1-0.9 0.7-2.1 1.2-1.5 0.6-2.6 0.7-1.1 0-1.9-0.5-0.9-0.5-1.6-1.5-0.7-1-1.3-2.4l-5.3-12.7zm13.2-8.5q1.1-0.5 1.9-0.7 0.9-0.2 1.3-0.2l0.5 2.4q-0.4 0-1.1 0.1-0.7 0.1-1.5 0.5-1.8 0.7-2.1 2-0.3 1.2 0.3 2.9l0.6 1.2 5.4-2.3 0.9 2.2-5.5 2.3 5.1 12.1-2.6 1-6.4-15.5q-1.2-2.7-0.4-4.8 0.7-2 3.6-3.2zm23.4 6.8q0.7 1.7 0.8 3.3 0.1 1.5-0.4 2.9-0.5 1.3-1.5 2.4-1 1-2.5 1.6-1.4 0.6-2.9 0.6-1.4 0-2.7-0.6-1.3-0.6-2.4-1.8-1-1.2-1.8-2.9-0.6-1.6-0.7-3.2-0.1-1.6 0.4-3 0.5-1.3 1.5-2.4 1-1 2.4-1.6 1.5-0.6 2.9-0.6 1.5 0 2.8 0.6 1.3 0.7 2.4 1.8 1 1.2 1.7 2.9zm-2.6 1.1q-1-2.4-2.7-3.4-1.7-0.9-3.5-0.2-1.9 0.8-2.4 2.7-0.5 1.8 0.5 4.2 1 2.4 2.7 3.4 1.6 1 3.5 0.2 1.9-0.8 2.4-2.6 0.5-1.9-0.5-4.3zm13 0.7l0.6 2.3q-2.4 0.9-3.8 0.4-1.4-0.6-2.2-2.6l-7.1-17.1 2.3-1.5 7.1 17.1q0.3 0.7 0.6 1 0.3 0.4 0.6 0.5 0.4 0.2 0.8 0.2 0.5-0.1 1.1-0.3zm0.3-14.6l5.9 14.2-2.5 1.1-6-14.2zm-2.3-2.1q-0.7 0.3-1.4 0.1-0.6-0.3-1-1.1-0.3-0.7 0-1.4 0.3-0.6 1-0.9 0.7-0.3 1.3 0 0.7 0.2 1 1 0.3 0.7 0 1.4-0.2 0.6-0.9 0.9zm22.3 2.1q0.7 1.7 0.7 3.3 0.1 1.6-0.4 2.9-0.4 1.4-1.5 2.5-1 1-2.4 1.6-1.5 0.6-2.9 0.6-1.5-0.1-2.8-0.7-1.3-0.6-2.3-1.7-1.1-1.2-1.8-2.9-0.7-1.7-0.8-3.3-0.1-1.6 0.4-2.9 0.5-1.4 1.5-2.4 1-1.1 2.5-1.7 1.4-0.6 2.9-0.5 1.4 0 2.7 0.6 1.3 0.6 2.4 1.8 1.1 1.2 1.8 2.8zm-2.7 1.1q-1-2.4-2.7-3.3-1.6-1-3.5-0.2-1.9 0.7-2.4 2.6-0.5 1.9 0.5 4.3 1 2.4 2.7 3.4 1.7 0.9 3.5 0.1 1.9-0.7 2.4-2.6 0.5-1.9-0.5-4.3z"/>
</svg>